<?xml version="1.0" standalone="no"?>
<!DOCTYPE svg PUBLIC "-//W3C//DTD SVG 20010904//EN"
 "http://www.w3.org/TR/2001/REC-SVG-20010904/DTD/svg10.dtd">
<svg version="1.0" xmlns="http://www.w3.org/2000/svg"
 width="837.000000pt" height="350.000000pt" viewBox="0 0 837.000000 350.000000"
 preserveAspectRatio="xMidYMid meet">
<metadata>
Created by potrace 1.15, written by Peter Selinger 2001-2017
</metadata>
<g transform="translate(0.000000,350.000000) scale(0.100000,-0.100000)"
fill="#000000" stroke="none">
<path d="M3996 3478 c-45 -70 -267 -543 -405 -863 l-159 -370 -58 -23 c-171
-67 -352 -96 -547 -89 -253 9 -410 70 -558 217 -74 72 -93 99 -132 180 -25 52
-51 123 -58 158 -15 82 -7 202 20 272 12 30 21 65 21 77 0 30 -26 53 -61 53
-23 0 -32 -7 -48 -38 -55 -107 -68 -305 -30 -442 83 -305 326 -513 679 -581
155 -30 445 -10 627 42 37 10 68 17 70 15 6 -6 -151 -327 -226 -461 -272 -487
-608 -858 -989 -1094 l-81 -50 -83 97 c-46 53 -120 140 -164 192 -261 312
-483 455 -786 506 -196 33 -400 3 -571 -82 -363 -182 -544 -559 -408 -851 95
-201 339 -295 766 -295 403 1 780 80 1116 235 l115 53 45 -39 c148 -133 353
-231 567 -274 134 -26 427 -23 595 6 320 56 636 171 834 304 l80 53 43 -18
c222 -94 785 -134 1190 -83 320 40 662 133 917 250 71 33 73 33 125 19 161
-43 534 -64 788 -45 343 26 616 84 927 197 211 76 231 91 203 142 -23 40 -57
39 -173 -6 -293 -114 -574 -182 -882 -212 -201 -20 -596 -11 -753 16 l-32 6
54 59 c196 211 171 535 -48 635 -196 89 -425 -15 -492 -224 -25 -79 -16 -219
18 -294 29 -63 101 -146 156 -180 l36 -22 -30 -13 c-76 -33 -402 -134 -509
-158 -455 -102 -954 -105 -1367 -9 -38 9 -68 18 -68 21 0 2 25 34 55 72 108
133 170 269 195 424 23 138 -6 312 -64 398 -52 76 -161 91 -234 32 -73 -59
-219 -308 -260 -443 -53 -175 -30 -342 62 -455 l34 -41 -57 -36 c-192 -122
-449 -217 -725 -269 -156 -29 -438 -37 -562 -15 -185 32 -344 99 -488 205
l-74 55 111 74 c346 229 631 533 877 937 85 140 232 423 319 615 l62 135 62
34 c385 209 555 551 533 1071 -6 159 -16 217 -38 232 -26 16 -67 8 -82 -14z
m9 -360 c-14 -222 -54 -372 -137 -512 -43 -74 -179 -217 -236 -249 l-32 -18 9
23 c83 215 382 868 397 868 3 0 3 -51 -1 -112z m359 -1837 c61 -52 67 -264 12
-421 -31 -91 -75 -163 -155 -258 l-65 -76 -38 44 c-62 70 -84 190 -57 308 25
109 187 394 238 419 26 12 34 10 65 -16z m2138 -57 c142 -99 120 -309 -49
-463 -36 -34 -73 -61 -81 -61 -32 0 -107 47 -152 97 -113 123 -118 291 -14
397 49 49 100 67 181 64 61 -3 78 -8 115 -34z m-5455 -69 c258 -54 434 -180
721 -515 63 -74 133 -153 154 -176 l39 -41 -107 -47 c-369 -162 -799 -238
-1177 -207 -286 24 -414 72 -504 189 -40 53 -55 107 -55 194 2 220 201 466
459 567 126 49 334 65 470 36z"/>
</g>
</svg>
